<?xml version="1.0" encoding="utf-8"?>
<!-- Generator: Adobe Illustrator 21.0.2, SVG Export Plug-In . SVG Version: 6.00 Build 0)  -->
<svg version="1.1" id="Layer_1" xmlns="http://www.w3.org/2000/svg" xmlns:xlink="http://www.w3.org/1999/xlink" x="0px" y="0px"
	 viewBox="0 0 150 62" style="enable-background:new 0 0 150 62;" xml:space="preserve">
<style type="text/css">
	.st0{fill:#FFFFFF;}
	.st1{fill:url(#SVGID_1_);}
	.st2{fill:none;}
	.st3{fill:#FF7342;}
	.st4{font-family:'Quicksand-Light';}
	.st5{font-size:28px;}
</style>
<g>
	<path class="st0" d="M119,62H31c-17,0-31-13.9-31-31v0c0-17,13.9-31,31-31h88c17,0,31,13.9,31,31v0C150,48.1,136.1,62,119,62z"/>
	<linearGradient id="SVGID_1_" gradientUnits="userSpaceOnUse" x1="0" y1="31" x2="150" y2="31">
		<stop  offset="0" style="stop-color:#FF7342"/>
		<stop  offset="0.9987" style="stop-color:#E34E25"/>
	</linearGradient>
	<path class="st1" d="M119,1c16.5,0,30,13.5,30,30c0,16.5-13.5,30-30,30H31C14.5,61,1,47.5,1,31C1,14.5,14.5,1,31,1H119 M119,0H31
		C13.9,0,0,13.9,0,31v0c0,17,13.9,31,31,31h88c17.1,0,31-13.9,31-31v0C150,13.9,136.1,0,119,0L119,0z"/>
</g>
<g>
	<rect x="25" y="20.8" class="st2" width="100" height="20.5"/>
	<text transform="matrix(1 0 0 1 25.0002 40.3666)" class="st3 st4 st5">GitHub</text>
</g>
<rect id="_x3C_Slice_x3E_" class="st2" width="150" height="62"/>
</svg>
