<?xml version="1.0" encoding="utf-8"?>
<!-- Generator: Adobe Illustrator 21.0.2, SVG Export Plug-In . SVG Version: 6.00 Build 0)  -->
<svg version="1.1" id="Layer_1" xmlns="http://www.w3.org/2000/svg" xmlns:xlink="http://www.w3.org/1999/xlink" x="0px" y="0px"
	 viewBox="0 0 200 200" style="enable-background:new 0 0 200 200;" xml:space="preserve">
<style type="text/css">
	.st0{fill:#FFFFFF;}
	.st1{fill:url(#SVGID_1_);}
	.st2{fill:none;}
	.st3{fill:#FF7342;}
	.st4{font-family:'Quicksand-Light';}
	.st5{font-size:28px;}
</style>
<g>
	<path class="st0" d="M144,131H56c-17,0-31-13.9-31-31v0c0-17,13.9-31,31-31h88c17,0,31,13.9,31,31v0C175,117.1,161.1,131,144,131z"
		/>
	<linearGradient id="SVGID_1_" gradientUnits="userSpaceOnUse" x1="25" y1="100" x2="175" y2="100">
		<stop  offset="0" style="stop-color:#FF7342"/>
		<stop  offset="0.9987" style="stop-color:#E34E25"/>
	</linearGradient>
	<path class="st1" d="M144,70c16.5,0,30,13.5,30,30c0,16.5-13.5,30-30,30H56c-16.5,0-30-13.5-30-30c0-16.5,13.5-30,30-30H144
		 M144,69H56c-17.1,0-31,13.9-31,31v0c0,17,13.9,31,31,31h88c17.1,0,31-13.9,31-31v0C175,82.9,161.1,69,144,69L144,69z"/>
</g>
<g>
	<rect x="50" y="89.8" class="st2" width="100" height="20.5"/>
	<text transform="matrix(1 0 0 1 50.0002 109.3666)" class="st3 st4 st5">GitHub</text>
</g>
<rect id="_x3C_Slice_x3E_" x="25" y="69" class="st2" width="150" height="62"/>
</svg>
