<?xml version="1.0" encoding="utf-8"?>
<!-- Generator: Adobe Illustrator 21.0.2, SVG Export Plug-In . SVG Version: 6.00 Build 0)  -->
<svg version="1.1" id="Layer_1" xmlns="http://www.w3.org/2000/svg" xmlns:xlink="http://www.w3.org/1999/xlink" x="0px" y="0px"
	 viewBox="0 0 209.8 136" style="enable-background:new 0 0 209.8 136;" xml:space="preserve">
<style type="text/css">
	.st0{fill:url(#SVGID_1_);}
	.st1{fill:none;stroke:#FFFFFF;stroke-miterlimit:10;}
	.st2{fill:none;stroke:#FFFFFF;stroke-linecap:round;stroke-miterlimit:10;}
	.st3{fill:#363636;stroke:#363636;stroke-miterlimit:10;}
	.st4{fill:#363636;stroke:#363636;stroke-linecap:round;stroke-miterlimit:10;}
</style>
<g id="XMLID_1_">
	<g>
		<linearGradient id="SVGID_1_" gradientUnits="userSpaceOnUse" x1="7.6006" y1="67.32" x2="202.6006" y2="67.32">
			<stop  offset="0" style="stop-color:#FF7342"/>
			<stop  offset="1" style="stop-color:#E34E25"/>
		</linearGradient>
		<path class="st0" d="M105.1,35.5c-34.5,0-62.5,28-62.5,62.5c0,7.4,1.3,14.5,3.6,21.1l-31.7,15.1C10.1,123,7.6,110.8,7.6,98
			c0-53.8,43.6-97.5,97.5-97.5s97.5,43.7,97.5,97.5c0,12.3-2.3,24.1-6.4,34.9l-32.1-14c2.3-6.5,3.6-13.6,3.6-20.9
			C167.6,63.5,139.6,35.5,105.1,35.5z"/>
	</g>
	<g>
		<path class="st1" d="M196.2,132.9c4.2-10.8,6.4-22.6,6.4-34.9c0-53.8-43.6-97.5-97.5-97.5S7.6,44.2,7.6,98c0,12.8,2.5,25,6.9,36.1
			"/>
		<path class="st1" d="M46.2,119.1c-2.4-6.6-3.6-13.7-3.6-21.1c0-34.5,28-62.5,62.5-62.5s62.5,28,62.5,62.5c0,7.3-1.3,14.3-3.6,20.9
			"/>
		<line class="st2" x1="46.2" y1="119.1" x2="14.5" y2="134.1"/>
		<line class="st2" x1="164" y1="118.9" x2="196.2" y2="132.9"/>
	</g>
</g>
<circle class="st3" cx="105.1" cy="98" r="5"/>
<polygon class="st4" points="105.1,98 105.1,93 150.1,95.5 195.1,98 150.1,100.5 105.1,103 "/>
</svg>
