<?xml version="1.0" encoding="utf-8"?>
<!-- Generator: Adobe Illustrator 21.0.2, SVG Export Plug-In . SVG Version: 6.00 Build 0)  -->
<svg version="1.1" id="Layer_1" xmlns="http://www.w3.org/2000/svg" xmlns:xlink="http://www.w3.org/1999/xlink" x="0px" y="0px"
	 viewBox="0 0 435.2 339.7" style="enable-background:new 0 0 435.2 339.7;" xml:space="preserve">
<style type="text/css">
	.st0{fill:url(#SVGID_1_);}
	.st1{fill:none;stroke:url(#SVGID_2_);stroke-miterlimit:10;}
	.st2{opacity:0.3;}
	.st3{fill-rule:evenodd;clip-rule:evenodd;fill:#FFFFFF;stroke:#FFFFFF;stroke-linecap:round;stroke-miterlimit:10;}
	.st4{fill:url(#SVGID_3_);}
	.st5{fill:none;stroke:url(#SVGID_4_);stroke-linecap:round;stroke-miterlimit:10;}
	.st6{fill:none;stroke:url(#SVGID_5_);stroke-width:5;stroke-linecap:round;stroke-miterlimit:10;}
	.st7{fill:none;stroke:url(#SVGID_6_);stroke-linecap:round;stroke-miterlimit:10;}
	.st8{fill-rule:evenodd;clip-rule:evenodd;fill:none;}
	.st9{opacity:0.4;fill:#FFFFFF;}
	.st10{font-family:'Quicksand-Regular';}
	.st11{font-size:40px;}
	.st12{fill:#FFFFFF;}
</style>
<g id="XMLID_1_">
	<g>
		<g>
			<linearGradient id="SVGID_1_" gradientUnits="userSpaceOnUse" x1="0.5355" y1="237.6949" x2="434.7063" y2="237.5218">
				<stop  offset="2.867149e-03" style="stop-color:#FF7342"/>
				<stop  offset="1" style="stop-color:#E34E25"/>
			</linearGradient>
			<path class="st0" d="M424.7,138.4c5.5,0,10,4.5,10,10l0.1,178.3c0,5.5-4.5,10-10,10l-414.2,0.2c-5.5,0-10-4.5-10-10L0.5,148.6
				c0-5.5,4.5-10,10-10L424.7,138.4z"/>
			<linearGradient id="SVGID_2_" gradientUnits="userSpaceOnUse" x1="3.553554e-02" y1="237.6951" x2="435.2063" y2="237.5216">
				<stop  offset="0" style="stop-color:#FFFFFF"/>
				<stop  offset="1" style="stop-color:#E34E25"/>
			</linearGradient>
			<path class="st1" d="M424.7,138.4c5.5,0,10,4.5,10,10l0.1,178.3c0,5.5-4.5,10-10,10l-414.2,0.2c-5.5,0-10-4.5-10-10L0.5,148.6
				c0-5.5,4.5-10,10-10L424.7,138.4z"/>
		</g>
	</g>
</g>
<g class="st2">
	<g>
		<g>
			<path class="st3" d="M191.8,266.5l-5.8-0.6c-0.2-1.5-0.4-3-0.8-4.5l5.1-2.7c-0.5-1.8-1.1-3.6-1.9-5.3l-5.6,1.1
				c-0.6-1.4-1.3-2.8-2.1-4.1l4-3.9c-1-1.6-2.1-3.1-3.4-4.6l-4.9,2.6c-1-1.2-2.1-2.3-3.3-3.4l2.5-4.8c-1.4-1.2-3-2.3-4.6-3.4
				l-3.8,3.8c-1.4-0.9-2.8-1.6-4.3-2.3l1-5.2c-1.7-0.7-3.5-1.4-5.4-1.9l-2.4,4.6c-1.6-0.4-3.2-0.7-4.8-1l-0.6-5.1
				c-0.9-0.1-1.9-0.2-2.8-0.2c-1,0-1.9,0-2.8,0l-0.9,5c-1.7,0.1-3.3,0.2-4.9,0.5l-2-4.7c-1.9,0.4-3.7,0.9-5.5,1.5l0.6,5.1
				c-1.6,0.6-3.1,1.2-4.6,2l-3.3-3.9c-1.7,0.9-3.3,1.9-4.8,3l2.1,4.7c-1.3,1-2.6,2.1-3.7,3.3l-4.4-2.8c-1.3,1.3-2.6,2.8-3.7,4.3
				l3.4,3.9c-0.9,1.3-1.8,2.7-2.6,4.2l-5.1-1.4c-0.9,1.7-1.6,3.4-2.3,5.2l4.6,2.8c-0.5,1.5-0.9,3.1-1.2,4.7l-5.4,0.2
				c-0.3,1.8-0.5,3.7-0.6,5.6l5.4,1.4c0,1.6,0.1,3.2,0.2,4.7l-5.3,1.8c0.2,1.9,0.6,3.7,1,5.5l5.7-0.2c0.4,1.5,1,2.9,1.6,4.4
				l-4.7,3.4c0.8,1.7,1.6,3.4,2.6,5l5.6-2c0.8,1.3,1.8,2.5,2.7,3.6l-3.6,4.8c1.2,1.4,2.6,2.7,4,4l4.9-3.7c1.1,0.9,2.4,1.8,3.6,2.6
				l-2.1,5.8c1.6,1,3.2,1.9,5,2.6l3.7-5.1c1.3,0.5,2.7,1,4.1,1.4l-0.3,6.3c1.8,0.5,3.6,0.8,5.5,1l2.1-6c0.6,0.1,1.3,0.1,1.9,0.1
				c0.8,0,1.6,0,2.4,0l1.6,6.2c1.9-0.1,3.8-0.3,5.6-0.6l0.2-6.4c1.4-0.3,2.8-0.7,4.1-1.1l3.4,5.5c1.8-0.6,3.5-1.4,5.2-2.3l-1.7-6.2
				c1.3-0.7,2.5-1.5,3.6-2.3l4.8,4.2c1.5-1.1,2.9-2.4,4.3-3.7l-3.4-5.4c1-1,1.9-2.1,2.8-3.3l5.8,2.6c1.1-1.5,2.1-3.1,3-4.8l-4.7-4.1
				c0.7-1.3,1.3-2.6,1.8-4l6.1,0.7c0.6-1.8,1.1-3.6,1.5-5.5l-5.6-2.4c0.3-1.4,0.4-2.9,0.5-4.4l5.9-1.1
				C192.1,270.3,192,268.4,191.8,266.5z"/>
		</g>
	</g>
	<g>
		<g>
			<path class="st3" d="M331.8,267.5l-5.8-0.6c-0.2-1.5-0.4-3-0.8-4.5l5.1-2.7c-0.5-1.8-1.1-3.6-1.9-5.3l-5.6,1.1
				c-0.6-1.4-1.3-2.8-2.1-4.1l4-3.9c-1-1.6-2.1-3.1-3.4-4.6l-4.9,2.6c-1-1.2-2.1-2.3-3.3-3.4l2.5-4.8c-1.4-1.2-3-2.3-4.6-3.4
				l-3.8,3.8c-1.4-0.9-2.8-1.6-4.3-2.3l1-5.2c-1.7-0.7-3.5-1.4-5.4-1.9l-2.4,4.6c-1.6-0.4-3.2-0.7-4.8-1l-0.6-5.1
				c-0.9-0.1-1.9-0.2-2.8-0.2c-1,0-1.9,0-2.8,0l-0.9,5c-1.7,0.1-3.3,0.2-4.9,0.5l-2-4.7c-1.9,0.4-3.7,0.9-5.5,1.5l0.6,5.1
				c-1.6,0.6-3.1,1.2-4.6,2l-3.3-3.9c-1.7,0.9-3.3,1.9-4.8,3l2.1,4.7c-1.3,1-2.6,2.1-3.7,3.3l-4.4-2.8c-1.3,1.3-2.6,2.8-3.7,4.3
				l3.4,3.9c-0.9,1.3-1.8,2.7-2.6,4.2l-5.1-1.4c-0.9,1.7-1.6,3.4-2.3,5.2l4.6,2.8c-0.5,1.5-0.9,3.1-1.2,4.7l-5.4,0.2
				c-0.3,1.8-0.5,3.7-0.6,5.6l5.4,1.4c0,1.6,0.1,3.2,0.2,4.7l-5.3,1.8c0.2,1.9,0.6,3.7,1,5.5l5.7-0.2c0.4,1.5,1,2.9,1.6,4.4
				l-4.7,3.4c0.8,1.7,1.6,3.4,2.6,5l5.6-2c0.8,1.3,1.8,2.5,2.7,3.6l-3.6,4.8c1.2,1.4,2.6,2.7,4,4l4.9-3.7c1.1,0.9,2.4,1.8,3.6,2.6
				l-2.1,5.8c1.6,1,3.2,1.9,5,2.6l3.7-5.1c1.3,0.5,2.7,1,4.1,1.4l-0.3,6.3c1.8,0.5,3.6,0.8,5.5,1l2.1-6c0.6,0.1,1.3,0.1,1.9,0.1
				c0.8,0,1.6,0,2.4,0l1.6,6.2c1.9-0.1,3.8-0.3,5.6-0.6l0.2-6.4c1.4-0.3,2.8-0.7,4.1-1.1l3.4,5.5c1.8-0.6,3.5-1.4,5.2-2.3l-1.7-6.2
				c1.3-0.7,2.5-1.5,3.6-2.3l4.8,4.2c1.5-1.1,2.9-2.4,4.3-3.7l-3.4-5.4c1-1,1.9-2.1,2.8-3.3l5.8,2.6c1.1-1.5,2.1-3.1,3-4.8l-4.7-4.1
				c0.7-1.3,1.3-2.6,1.8-4l6.1,0.7c0.6-1.8,1.1-3.6,1.5-5.5l-5.6-2.4c0.3-1.4,0.4-2.9,0.5-4.4l5.9-1.1
				C332.1,271.3,332,269.4,331.8,267.5z"/>
		</g>
	</g>
	<g>
		<g>
			<path class="st3" d="M263.3,215.2c0-1.8-0.2-3.6-0.4-5.3l-6.9-0.5c-0.2-1.5-0.6-3-1-4.5l5.9-3.4c-0.6-1.7-1.2-3.4-2-5l-6.4,1.5
				c-0.7-1.4-1.5-2.8-2.3-4.1l4.4-4.7c-1.1-1.5-2.2-2.9-3.5-4.2l-5.4,3.1c-1.1-1.2-2.2-2.3-3.4-3.3l2.6-5.4c-1.5-1.1-3-2.1-4.6-3
				l-4,4.3c-1.4-0.8-2.8-1.5-4.3-2.2l0.9-5.5c-1.7-0.6-3.5-1.1-5.4-1.5l-2.3,4.9c-1.6-0.4-3.2-0.6-4.9-0.8l-0.8-5.1
				c-0.6,0-1.2,0-1.8,0c-1.3,0-2.6,0.1-3.8,0.2l-0.7,5c-1.7,0.1-3.3,0.4-4.9,0.7l-2.1-4.4c-1.9,0.5-3.7,1.1-5.5,1.8l0.7,4.7
				c-1.5,0.6-3,1.4-4.5,2.2l-3.1-3.4c-1.7,1-3.3,2.2-4.8,3.4l2,4c-1.3,1.1-2.5,2.2-3.6,3.4l-3.8-2.2c-1.3,1.5-2.5,3-3.6,4.6l3,3.2
				c-0.9,1.4-1.7,2.8-2.4,4.3l-4.2-1c-0.8,1.8-1.6,3.6-2.1,5.5l3.8,2.2c-0.4,1.5-0.8,3.1-1,4.7l-4.4,0.3c-0.3,1.9-0.4,3.9-0.4,5.9
				l4.4,1c0,1.6,0.2,3.2,0.4,4.7l-4.3,1.7c0.3,2,0.7,3.9,1.3,5.8l4.8-0.4c0.5,1.5,1.1,2.9,1.7,4.3l-3.8,3c0.9,1.8,1.8,3.5,2.9,5.1
				l4.7-1.9c0.9,1.2,1.9,2.4,2.9,3.5l-3,4.4c1.3,1.4,2.7,2.8,4.2,4l4.3-3.4c1.2,0.9,2.4,1.7,3.7,2.5l-1.7,5.4c1.6,1,3.4,1.8,5.1,2.6
				l3.3-4.9c1.4,0.5,2.8,0.9,4.2,1.2l0,6.1c1.8,0.4,3.7,0.8,5.6,1l1.8-6c0.6,0,1.3,0,1.9,0c0.8,0,1.6,0,2.4-0.1l1.9,6.2
				c1.9-0.1,3.7-0.4,5.5-0.7l0-6.6c1.4-0.4,2.8-0.8,4.1-1.3l3.8,5.6c1.7-0.7,3.4-1.4,5-2.3l-2.1-6.6c1.2-0.7,2.4-1.5,3.5-2.4
				l5.5,4.4c1.4-1.1,2.8-2.3,4-3.6l-4-5.8c1-1.1,1.9-2.2,2.7-3.4l6.7,2.6c1-1.5,1.9-3,2.7-4.6l-5.6-4.4c0.6-1.3,1.2-2.7,1.6-4.1
				l7.1,0.6c0.5-1.7,0.9-3.4,1.2-5.2l-6.6-2.6c0.2-1.5,0.3-2.9,0.4-4.4L263.3,215.2z"/>
		</g>
	</g>
</g>
<g id="XMLID_2_">
	<g>
		<g>
			<g>
				
					<linearGradient id="SVGID_3_" gradientUnits="userSpaceOnUse" x1="21.4554" y1="304.1825" x2="445.8263" y2="303.0658" gradientTransform="matrix(1 0 0 0.5125 0 -45.3463)">
					<stop  offset="0" style="stop-color:#FF7342"/>
					<stop  offset="1" style="stop-color:#E34E25"/>
				</linearGradient>
				<path class="st4" d="M427.4,136.9c4.6,3.1,3.8,5.6-1.7,5.6L228.2,143c-5.5,0-14.5,0-20,0.1l-197.5,0.5c-5.5,0-6.3-2.5-1.7-5.6
					l81.3-54.9c4.6-3.1,12.8-5.6,18.3-5.6h219.9c5.5,0,13.7,2.5,18.3,5.6L427.4,136.9z"/>
			</g>
		</g>
		<g>
			<g>
				<linearGradient id="SVGID_4_" gradientUnits="userSpaceOnUse" x1="98.0915" y1="77.4789" x2="338.9515" y2="77.4789">
					<stop  offset="0" style="stop-color:#F15A24"/>
					<stop  offset="1" style="stop-color:#E34E25"/>
				</linearGradient>
				<line class="st5" x1="98.6" y1="77.5" x2="338.5" y2="77.5"/>
			</g>
		</g>
	</g>
</g>
<g id="XMLID_5_">
	<g>
	</g>
	<g>
		<linearGradient id="SVGID_5_" gradientUnits="userSpaceOnUse" x1="130.2715" y1="58.4789" x2="292.9715" y2="58.4789">
			<stop  offset="0" style="stop-color:#FF7342"/>
			<stop  offset="1" style="stop-color:#E34E25"/>
		</linearGradient>
		<path class="st6" d="M132.8,77.5c12.9-22.3,43.4-38,78.8-38s65.9,15.7,78.9,38"/>
		<linearGradient id="SVGID_6_" gradientUnits="userSpaceOnUse" x1="119.1215" y1="77.4789" x2="301.1215" y2="77.4789">
			<stop  offset="0" style="stop-color:#FF7342"/>
			<stop  offset="1" style="stop-color:#E34E25"/>
		</linearGradient>
		<polyline class="st7" points="119.6,77.5 132.8,77.5 290.5,77.5 300.6,77.5 		"/>
	</g>
</g>
<rect x="100.6" y="190" class="st8" width="78" height="32"/>
<text transform="matrix(1 0 0 1 100.6215 217.9789)" class="st9 st10 st11">Swi</text>
<rect x="267.6" y="191" class="st8" width="63" height="32"/>
<text transform="matrix(1 0 0 1 267.6215 218.9789)" class="st9 st10 st11">ML</text>
<rect x="170.6" y="190" class="st8" width="100" height="31"/>
<text transform="matrix(1 0 0 1 170.6215 217.9789)" class="st12 st10 st11">ft HT</text>
</svg>
