<?xml version="1.0" encoding="utf-8"?>
<!-- Generator: Adobe Illustrator 21.0.2, SVG Export Plug-In . SVG Version: 6.00 Build 0)  -->
<svg version="1.1" id="Layer_1" xmlns="http://www.w3.org/2000/svg" xmlns:xlink="http://www.w3.org/1999/xlink" x="0px" y="0px"
	 viewBox="0 0 980 157" style="enable-background:new 0 0 980 157;" xml:space="preserve">
<style type="text/css">
	.st0{opacity:0.3;}
	.st1{fill-rule:evenodd;clip-rule:evenodd;fill:url(#SVGID_1_);stroke:url(#SVGID_2_);stroke-linecap:round;stroke-miterlimit:10;}
	.st2{fill-rule:evenodd;clip-rule:evenodd;fill:url(#SVGID_3_);stroke:url(#SVGID_4_);stroke-linecap:round;stroke-miterlimit:10;}
	.st3{fill-rule:evenodd;clip-rule:evenodd;fill:url(#SVGID_5_);stroke:url(#SVGID_6_);stroke-linecap:round;stroke-miterlimit:10;}
	.st4{fill-rule:evenodd;clip-rule:evenodd;fill:none;}
	.st5{fill:#363636;stroke:#363636;stroke-miterlimit:10;}
	.st6{font-family:'Quicksand-Regular';}
	.st7{font-size:40px;}
</style>
<g class="st0">
	<g>
		<g>
			<linearGradient id="SVGID_1_" gradientUnits="userSpaceOnUse" x1="375.2589" y1="104.5892" x2="466.4117" y2="104.5892">
				<stop  offset="0" style="stop-color:#FF7342"/>
				<stop  offset="1" style="stop-color:#E34E25"/>
			</linearGradient>
			<linearGradient id="SVGID_2_" gradientUnits="userSpaceOnUse" x1="374.7382" y1="104.5988" x2="466.9117" y2="104.5988">
				<stop  offset="0" style="stop-color:#FF7342"/>
				<stop  offset="1" style="stop-color:#E34E25"/>
			</linearGradient>
			<path class="st1" d="M466.2,100l-5.8-0.6c-0.2-1.5-0.4-3-0.8-4.5l5.1-2.7c-0.5-1.8-1.1-3.6-1.9-5.3l-5.6,1.1
				c-0.6-1.4-1.3-2.8-2.1-4.1l4-3.9c-1-1.6-2.1-3.1-3.4-4.6l-4.9,2.6c-1-1.2-2.1-2.3-3.3-3.4l2.5-4.8c-1.4-1.2-3-2.3-4.6-3.4
				l-3.8,3.8c-1.4-0.9-2.8-1.6-4.3-2.3l1-5.2c-1.7-0.7-3.5-1.4-5.4-1.9l-2.4,4.6c-1.6-0.4-3.2-0.7-4.8-1l-0.6-5.1
				c-0.9-0.1-1.9-0.2-2.8-0.2c-1,0-1.9,0-2.8,0l-0.9,5c-1.7,0.1-3.3,0.2-4.9,0.5l-2-4.7c-1.9,0.4-3.7,0.9-5.5,1.5l0.6,5.1
				c-1.6,0.6-3.1,1.2-4.6,2l-3.3-3.9c-1.7,0.9-3.3,1.9-4.8,3l2.1,4.7c-1.3,1-2.6,2.1-3.7,3.3l-4.4-2.8c-1.3,1.3-2.6,2.8-3.7,4.3
				l3.4,3.9c-0.9,1.3-1.8,2.7-2.6,4.2l-5.1-1.4c-0.9,1.7-1.6,3.4-2.3,5.2l4.6,2.8c-0.5,1.5-0.9,3.1-1.2,4.7l-5.4,0.2
				c-0.3,1.8-0.5,3.7-0.6,5.6l5.4,1.4c0,1.6,0.1,3.2,0.2,4.7l-5.3,1.8c0.2,1.9,0.6,3.7,1,5.5l5.7-0.2c0.4,1.5,1,2.9,1.6,4.4
				l-4.7,3.4c0.8,1.7,1.6,3.4,2.6,5l5.6-2c0.8,1.3,1.8,2.5,2.7,3.6l-3.6,4.8c1.2,1.4,2.6,2.7,4,4l4.9-3.7c1.1,0.9,2.4,1.8,3.6,2.6
				l-2.1,5.8c1.6,1,3.2,1.9,5,2.6l3.7-5.1c1.3,0.5,2.7,1,4.1,1.4l-0.3,6.3c1.8,0.5,3.6,0.8,5.5,1l2.1-6c0.6,0.1,1.3,0.1,1.9,0.1
				c0.8,0,1.6,0,2.4,0l1.6,6.2c1.9-0.1,3.8-0.3,5.6-0.6l0.2-6.4c1.4-0.3,2.8-0.7,4.1-1.1l3.4,5.5c1.8-0.6,3.5-1.4,5.2-2.3l-1.7-6.2
				c1.3-0.7,2.5-1.5,3.6-2.3l4.8,4.2c1.5-1.1,2.9-2.4,4.3-3.7l-3.4-5.4c1-1,1.9-2.1,2.8-3.3l5.8,2.6c1.1-1.5,2.1-3.1,3-4.8l-4.7-4.1
				c0.7-1.3,1.3-2.6,1.8-4l6.1,0.7c0.6-1.8,1.1-3.6,1.5-5.5l-5.6-2.4c0.3-1.4,0.4-2.9,0.5-4.4l5.9-1.1
				C466.4,103.8,466.4,101.9,466.2,100z"/>
		</g>
	</g>
	<g>
		<g>
			<linearGradient id="SVGID_3_" gradientUnits="userSpaceOnUse" x1="515.2589" y1="105.5892" x2="606.4117" y2="105.5892">
				<stop  offset="0" style="stop-color:#FF7342"/>
				<stop  offset="1" style="stop-color:#E34E25"/>
			</linearGradient>
			<linearGradient id="SVGID_4_" gradientUnits="userSpaceOnUse" x1="514.7382" y1="105.5988" x2="606.9117" y2="105.5988">
				<stop  offset="0" style="stop-color:#FF7342"/>
				<stop  offset="1" style="stop-color:#E34E25"/>
			</linearGradient>
			<path class="st2" d="M606.2,101l-5.8-0.6c-0.2-1.5-0.4-3-0.8-4.5l5.1-2.7c-0.5-1.8-1.1-3.6-1.9-5.3l-5.6,1.1
				c-0.6-1.4-1.3-2.8-2.1-4.1l4-3.9c-1-1.6-2.1-3.1-3.4-4.6l-4.9,2.6c-1-1.2-2.1-2.3-3.3-3.4l2.5-4.8c-1.4-1.2-3-2.3-4.6-3.4
				l-3.8,3.8c-1.4-0.9-2.8-1.6-4.3-2.3l1-5.2c-1.7-0.7-3.5-1.4-5.4-1.9l-2.4,4.6c-1.6-0.4-3.2-0.7-4.8-1l-0.6-5.1
				c-0.9-0.1-1.9-0.2-2.8-0.2c-1,0-1.9,0-2.8,0l-0.9,5c-1.7,0.1-3.3,0.2-4.9,0.5l-2-4.7c-1.9,0.4-3.7,0.9-5.5,1.5l0.6,5.1
				c-1.6,0.6-3.1,1.2-4.6,2l-3.3-3.9c-1.7,0.9-3.3,1.9-4.8,3l2.1,4.7c-1.3,1-2.6,2.1-3.7,3.3l-4.4-2.8c-1.3,1.3-2.6,2.8-3.7,4.3
				l3.4,3.9c-0.9,1.3-1.8,2.7-2.6,4.2l-5.1-1.4c-0.9,1.7-1.6,3.4-2.3,5.2l4.6,2.8c-0.5,1.5-0.9,3.1-1.2,4.7l-5.4,0.2
				c-0.3,1.8-0.5,3.7-0.6,5.6l5.4,1.4c0,1.6,0.1,3.2,0.2,4.7l-5.3,1.8c0.2,1.9,0.6,3.7,1,5.5l5.7-0.2c0.4,1.5,1,2.9,1.6,4.4
				l-4.7,3.4c0.8,1.7,1.6,3.4,2.6,5l5.6-2c0.8,1.3,1.8,2.5,2.7,3.6l-3.6,4.8c1.2,1.4,2.6,2.7,4,4l4.9-3.7c1.1,0.9,2.4,1.8,3.6,2.6
				l-2.1,5.8c1.6,1,3.2,1.9,5,2.6l3.7-5.1c1.3,0.5,2.7,1,4.1,1.4l-0.3,6.3c1.8,0.5,3.6,0.8,5.5,1l2.1-6c0.6,0.1,1.3,0.1,1.9,0.1
				c0.8,0,1.6,0,2.4,0l1.6,6.2c1.9-0.1,3.8-0.3,5.6-0.6l0.2-6.4c1.4-0.3,2.8-0.7,4.1-1.1l3.4,5.5c1.8-0.6,3.5-1.4,5.2-2.3l-1.7-6.2
				c1.3-0.7,2.5-1.5,3.6-2.3l4.8,4.2c1.5-1.1,2.9-2.4,4.3-3.7l-3.4-5.4c1-1,1.9-2.1,2.8-3.3l5.8,2.6c1.1-1.5,2.1-3.1,3-4.8l-4.7-4.1
				c0.7-1.3,1.3-2.6,1.8-4l6.1,0.7c0.6-1.8,1.1-3.6,1.5-5.5l-5.6-2.4c0.3-1.4,0.4-2.9,0.5-4.4l5.9-1.1
				C606.4,104.8,606.4,102.9,606.2,101z"/>
		</g>
	</g>
	<g>
		<g>
			<linearGradient id="SVGID_5_" gradientUnits="userSpaceOnUse" x1="446.4824" y1="49.5639" x2="537.6888" y2="49.5639">
				<stop  offset="0" style="stop-color:#FF7342"/>
				<stop  offset="1" style="stop-color:#E34E25"/>
			</linearGradient>
			<linearGradient id="SVGID_6_" gradientUnits="userSpaceOnUse" x1="445.9784" y1="49.5764" x2="538.1966" y2="49.5764">
				<stop  offset="0" style="stop-color:#FF7342"/>
				<stop  offset="1" style="stop-color:#E34E25"/>
			</linearGradient>
			<path class="st3" d="M537.7,48.7c0-1.8-0.2-3.6-0.4-5.3l-6.9-0.5c-0.2-1.5-0.6-3-1-4.5l5.9-3.4c-0.6-1.7-1.2-3.4-2-5l-6.4,1.5
				c-0.7-1.4-1.5-2.8-2.3-4.1l4.4-4.7c-1.1-1.5-2.2-2.9-3.5-4.2l-5.4,3.1c-1.1-1.2-2.2-2.3-3.4-3.3l2.6-5.4c-1.5-1.1-3-2.1-4.6-3
				l-4,4.3c-1.4-0.8-2.8-1.5-4.3-2.2l0.9-5.5c-1.7-0.6-3.5-1.1-5.4-1.5l-2.3,4.9c-1.6-0.4-3.2-0.6-4.9-0.8L493.9,4
				c-0.6,0-1.2,0-1.8,0c-1.3,0-2.6,0.1-3.8,0.2l-0.7,5c-1.7,0.1-3.3,0.4-4.9,0.7l-2.1-4.4c-1.9,0.5-3.7,1.1-5.5,1.8l0.7,4.7
				c-1.5,0.6-3,1.4-4.5,2.2l-3.1-3.4c-1.7,1-3.3,2.2-4.8,3.4l2,4c-1.3,1.1-2.5,2.2-3.6,3.4l-3.8-2.2c-1.3,1.5-2.5,3-3.6,4.6l3,3.2
				c-0.9,1.4-1.7,2.8-2.4,4.3l-4.2-1c-0.8,1.8-1.6,3.6-2.1,5.5l3.8,2.2c-0.4,1.5-0.8,3.1-1,4.7l-4.4,0.3c-0.3,1.9-0.4,3.9-0.4,5.9
				l4.4,1c0,1.6,0.2,3.2,0.4,4.7l-4.3,1.7c0.3,2,0.7,3.9,1.3,5.8L453,62c0.5,1.5,1.1,2.9,1.7,4.3l-3.8,3c0.9,1.8,1.8,3.5,2.9,5.1
				l4.7-1.9c0.9,1.2,1.9,2.4,2.9,3.5l-3,4.4c1.3,1.4,2.7,2.8,4.2,4l4.3-3.4c1.2,0.9,2.4,1.7,3.7,2.5l-1.7,5.4c1.6,1,3.4,1.8,5.1,2.6
				l3.3-4.9c1.4,0.5,2.8,0.9,4.2,1.2l0,6.1c1.8,0.4,3.7,0.8,5.6,1l1.8-6c0.6,0,1.3,0,1.9,0c0.8,0,1.6,0,2.4-0.1l1.9,6.2
				c1.9-0.1,3.7-0.4,5.5-0.7l0-6.6c1.4-0.4,2.8-0.8,4.1-1.3l3.8,5.6c1.7-0.7,3.4-1.4,5-2.3l-2.1-6.6c1.2-0.7,2.4-1.5,3.5-2.4
				l5.5,4.4c1.4-1.1,2.8-2.3,4-3.6l-4-5.8c1-1.1,1.9-2.2,2.7-3.4l6.7,2.6c1-1.5,1.9-3,2.7-4.6l-5.6-4.4c0.6-1.3,1.2-2.7,1.6-4.1
				l7.1,0.6c0.5-1.7,0.9-3.4,1.2-5.2l-6.6-2.6c0.2-1.5,0.3-2.9,0.4-4.4L537.7,48.7z"/>
		</g>
	</g>
</g>
<rect x="375" y="23.5" class="st4" width="78" height="32"/>
<text transform="matrix(1 0 0 1 375 51.5)" class="st5 st6 st7">Swi</text>
<rect x="542" y="24.5" class="st4" width="63" height="32"/>
<text transform="matrix(1 0 0 1 542 52.5)" class="st5 st6 st7">ML</text>
<rect x="445" y="23.5" class="st4" width="100" height="31"/>
<text transform="matrix(1 0 0 1 445 51.5)" class="st5 st6 st7">ft HT</text>
</svg>
